<?xml version="1.0" standalone="no"?><!DOCTYPE svg PUBLIC "-//W3C//DTD SVG 1.1//EN" "http://www.w3.org/Graphics/SVG/1.1/DTD/svg11.dtd"><svg t="1641282386956" class="icon" viewBox="0 0 1025 1024" version="1.1" xmlns="http://www.w3.org/2000/svg" p-id="7328" xmlns:xlink="http://www.w3.org/1999/xlink" width="200.1953125" height="200"><defs><style type="text/css"></style></defs><path d="M222.90432 40.96a20.3776 20.3776 0 0 0-14.17216 10.15808c-2.94912 5.28384-3.35872 11.6736-1.20832 17.36704a269.12768 269.12768 0 0 0 47.37024 81.92C194.27328 149.9136 124.33408 158.80192 53.28896 188.14976a20.3776 20.3776 0 0 0-12.8 17.94048c-0.4096 7.9872 3.85024 15.42144 10.89536 19.18976 0.47104 0.24576 10.15808 7.76192 20.48 17.92 10.30144 10.15808 22.9376 22.79424 37.10976 36.47488 24.63744 23.67488 53.12512 49.60256 85.77024 64a201.23648 201.23648 0 0 1-115.22048 47.37024 20.48 20.48 0 0 0-13.43488 34.54976s12.00128 12.96384 30.08512 26.25536c9.91232 7.2704 22.3232 14.1312 35.84 19.82464-11.53024 13.45536-21.9136 27.60704-38.4 39.69024-24.4736 17.8176-46.71488 30.06464-46.71488 30.06464a20.56192 20.56192 0 0 0-10.56768 17.92c0 7.45472 4.096 14.336 10.56768 17.92 0 0 13.18912 7.04512 29.42976 14.09024 7.51616 3.2768 16.73216 4.23936 24.96512 7.04512C68.17792 671.8464 11.0592 711.68 11.0592 711.68c-6.79936 3.60448-11.0592 10.71104-10.9568 18.39104a20.39808 20.39808 0 0 0 11.42784 18.08384 20.45952 20.45952 0 0 0 21.2992-1.90464s81.8176-52.24448 117.10464-153.6a20.52096 20.52096 0 0 0-19.21024-27.52512c-3.9936 0-18.78016-4.89472-31.3344-9.60512 7.82336-5.03808 8.45824-4.64896 17.89952-11.53024 26.7264-19.51744 57.4464-43.52 71.04512-74.87488A20.50048 20.50048 0 0 0 170.41408 440.32c-12.88192-0.55296-27.7504-8.88832-40.96-17.28512 55.05024-15.52384 91.19744-45.75232 105.59488-60.14976a19.61984 19.61984 0 0 0 4.48512-5.77536c46.96064 8.64256 80.95744-1.10592 96.64512-8.94976 6.79936-3.11296 11.42784-9.76896 11.91936-17.28512a20.52096 20.52096 0 0 0-30.47424-19.21024c-5.77536 2.88768-42.65984 15.4624-94.72-1.26976-26.48064-8.23296-58.1632-34.24256-85.13536-60.14976-12.96384-12.4928-25.1904-24.63744-35.84-35.20512 78.6432-25.27232 155.60704-27.36128 214.40512-20.48 4.95616 0.63488 9.91232-0.47104 14.09024-3.19488C365.69088 167.8336 412.18048 143.36 474.39872 143.36c97.60768 0 152.02304 12.55424 183.7056 27.52512 31.66208 14.9504 41.984 31.0272 55.66464 49.90976a20.48 20.48 0 0 0 16.01536 8.31488c116.9408 4.01408 195.1744 39.69024 195.1744 39.69024 2.6624 0.96256 5.5296 1.4336 8.33536 1.29024 0 0 21.03296 0.7168 49.93024 4.46464-1.37216 5.36576-7.7824 15.99488-12.16512 21.11488-4.23936 4.97664-5.9392 11.61216-4.48512 17.94048 3.6864 16.95744-9.76896 59.74016-27.52512 94.69952-15.44192 30.49472-28.63104 49.0496-32.62464 55.05024-13.6192 2.00704-117.53472 16.0768-201.60512-36.47488v0.63488c-42.96704-27.91424-78.88896-41.6768-112.00512-38.4-33.11616 3.2768-59.43296 24.96512-76.8 55.05024-13.04576 22.07744-19.59936 42.14784-19.21024 61.44 0.4096 19.2512 9.29792 36.70016 21.77024 49.27488 24.8832 25.1904 61.91104 36.864 102.4 47.98464 40.48896 11.12064 84.39808 20.25472 120.32 33.93536 31.92832 12.14464 54.64064 27.66848 67.19488 46.71488-5.5296 13.5168-19.0464 31.60064-35.84 46.08-3.2768 2.80576-3.2768 2.00704-6.38976 4.48512-1.92512-7.45472-3.05152-15.27808-10.24-21.77024-10.32192-9.27744-25.2928-12.30848-40.96-9.58464-38.89152 6.47168-59.67872-1.37216-80.01536-7.04512-10.15808-2.8672-21.66784-5.9392-35.18464-2.56-13.5168 3.35872-24.576 13.84448-32.64512 27.50464a18.0224 18.0224 0 0 0-0.63488 1.92512c-15.13472 31.68256-8.0896 66.2528 0 92.81536 1.90464 6.144 2.39616 5.59104 4.46464 10.8544-17.5104-5.89824-31.98976-14.06976-31.98976-14.06976a20.62336 20.62336 0 0 0-17.03936-4.62848 20.5824 20.5824 0 0 0-14.336 10.40384c-37.5808 72.62208 10.24 158.06464 10.24 158.06464 3.13344 6.79936 9.76896 11.44832 17.3056 11.91936A20.52096 20.52096 0 0 0 554.41408 957.44c-0.02048 0-22.50752-52.87936-15.38048-97.28 16.7936 8.31488 40.1408 15.99488 67.19488 12.16512a20.39808 20.39808 0 0 0 15.60576-10.9568 20.6848 20.6848 0 0 0-0.24576-19.12832s-9.27744-16.95744-15.99488-39.03488c-6.47168-21.2992-9.03168-45.85472-2.56-61.44 0.4096-0.7168 0.24576-0.08192 0.63488-0.65536 4.32128-6.8608 5.9392-8.23296 6.41024-8.31488 0.47104-0.16384 5.03808 0 14.06976 2.56 18.08384 5.03808 50.09408 15.52384 97.28 7.68 7.92576-1.35168 8.25344-0.16384 7.68-0.63488-0.55296-0.47104 0.24576 1.1264 0.65536 5.12 0.7168 7.9872-2.58048 20.48-2.58048 20.48a20.43904 20.43904 0 1 0 30.72 23.67488s20.09088-12.8 41.61536-31.35488c21.504-18.55488 45.91616-41.92256 53.10464-73.60512a20.48 20.48 0 0 0-1.26976-13.43488c-14.15168-29.9008-40.71424-48.9472-71.04512-63.36512 4.01408-16.46592 6.08256-40.71424-2.56-71.02464-22.24128 27.83232-47.59552 46.22336-52.46976 49.90976-9.05216-2.80576-18.41152-5.8368-27.52512-8.31488 1.20832-9.13408 1.92512-18.6368 1.92512-29.45024-9.68704 8.64256-20.25472 15.68768-30.08512 21.77024-6.47168-1.67936-12.88192-3.44064-19.21024-5.12 1.29024-9.8304 1.2288-20.8896 0-33.28-11.03872 9.91232-22.38464 17.92-33.28 24.30976-6.9632-2.06848-13.5168-4.15744-19.82464-6.38976 1.8432-10.40384 3.11296-21.6064 1.90464-33.93536-9.91232 8.8064-20.23424 16.24064-30.06464 22.40512-9.13408-4.62848-16.95744-9.8304-21.77024-14.70464-6.71744-6.81984-9.4208-12.24704-9.58464-21.13536-0.16384-8.86784 3.50208-21.74976 14.06976-39.66976v-0.65536c13.35296-23.18336 26.23488-32.70656 44.81024-34.54976 5.4272-0.55296 12.14464 0 19.18976 1.29024-0.24576 10.5472-0.8192 22.6304-1.92512 35.84 14.336-5.20192 26.09152-14.00832 36.49536-23.69536 7.35232 3.52256 15.27808 8.33536 23.67488 13.45536 1.26976 10.07616 1.8432 22.79424-0.65536 40.96 12.00128-3.60448 22.89664-12.4928 32.64512-23.04 6.63552 3.2768 13.2096 6.22592 19.84512 8.94976-0.4096 10.6496-2.00704 22.7328-3.85024 36.47488 12.65664-3.74784 24.65792-14.31552 35.2256-26.23488 14.1312 3.9936 28.0576 6.88128 41.5744 8.97024 2.2528 15.42144 4.5056 41.5744-0.6144 78.70464 29.73696-10.40384 54.86592-51.5072 66.56-73.58464 34.304-0.32768 57.58976-4.5056 57.58976-4.5056a20.43904 20.43904 0 0 0 13.43488-8.94976s20.56192-30.06464 39.69024-67.82976c17.34656-34.24256 33.25952-73.60512 30.06464-110.73536 6.88128-8.704 14.6432-18.78016 17.92-33.25952 2.00704-8.64256 2.17088-19.68128-3.82976-30.1056-6.00064-10.38336-17.44896-16.93696-29.45024-19.18976h-1.26976c-30.16704-3.9936-49.93024-4.48512-52.49024-4.48512-6.9632-3.03104-82.2272-33.9968-195.82976-39.66976-12.71808-17.36704-29.61408-39.1168-64.65536-55.68512-36.4544-17.2032-90.7264-28.79488-176.61952-30.72-6.88128-4.79232-25.12896-16.87552-62.09536-30.06464C392.0896 56.77056 323.13344 40.96 226.73408 40.96h-3.85024z m39.66976 44.15488c66.31424 3.35872 118.72256 12.41088 153.6 23.69536-40.32512 8.94976-72.97024 26.15296-99.20512 42.86464-20.8896-13.9264-39.91552-40.87808-54.39488-66.56z m319.36512 163.20512c-27.93472 1.29024-48.00512 5.75488-48.00512 5.75488 2.08896 14.336 30.47424 55.43936 65.29024 59.51488 26.624-24.55552 53.51424-43.49952 78.06976-53.73952-31.744-11.28448-67.44064-12.82048-95.35488-11.53024z" p-id="7329"></path></svg>